<?xml version="1.0" standalone="no"?>
<!DOCTYPE svg PUBLIC "-//W3C//DTD SVG 20010904//EN"
 "http://www.w3.org/TR/2001/REC-SVG-20010904/DTD/svg10.dtd">
<svg version="1.0" xmlns="http://www.w3.org/2000/svg"
 width="700.000000pt" height="700.000000pt" viewBox="0 0 700.000000 700.000000"
 preserveAspectRatio="xMidYMid meet">
<metadata>
Created by potrace 1.14, written by Peter Selinger 2001-2017
</metadata>
<g transform="translate(0.000000,700.000000) scale(0.100000,-0.100000)"
fill="#000000" stroke="none">
<path d="M3258 6635 c-2 -1 -41 -5 -88 -9 -47 -3 -96 -8 -110 -10 -14 -3 -47
-7 -73 -11 -73 -9 -230 -42 -337 -71 -300 -81 -594 -213 -850 -381 -99 -65
-265 -185 -280 -203 -3 -3 -38 -35 -79 -70 -75 -65 -144 -133 -236 -232 -262
-278 -497 -661 -638 -1038 -68 -183 -147 -479 -163 -611 -3 -30 -8 -57 -10
-60 -2 -3 -6 -32 -10 -64 -3 -32 -7 -67 -9 -77 -8 -37 -18 -257 -18 -363 0
-122 9 -264 24 -370 5 -38 12 -86 14 -105 5 -36 7 -45 26 -140 91 -451 311
-916 615 -1300 96 -121 380 -401 504 -496 115 -89 257 -186 335 -229 28 -15
55 -31 60 -35 21 -17 253 -130 335 -163 235 -96 465 -162 695 -202 17 -2 39
-7 51 -9 12 -2 45 -7 75 -11 30 -3 70 -8 89 -11 383 -46 868 -2 1240 113 47
15 90 28 95 29 75 15 504 212 592 271 15 11 75 51 133 89 287 188 603 492 783
751 21 29 52 74 70 100 195 281 384 718 462 1073 43 194 67 356 80 555 6 87 6
323 0 390 -2 28 -7 79 -10 115 -3 36 -7 75 -9 85 -2 11 -7 43 -10 70 -18 135
-70 347 -125 507 -296 874 -974 1579 -1836 1913 -132 50 -298 102 -385 120 -8
2 -33 8 -55 13 -53 15 -265 49 -340 56 -145 14 -222 18 -407 21 -108 1 -198 1
-200 0z m547 -129 c63 -8 194 -27 220 -32 11 -2 31 -6 45 -9 14 -2 36 -6 50
-9 111 -19 364 -97 521 -161 316 -129 655 -349 881 -572 75 -73 91 -96 51 -74
-18 11 -36 19 -248 111 -60 26 -135 59 -165 73 -285 131 -588 233 -815 275
-176 33 -180 34 -400 37 -347 5 -609 -45 -929 -178 -85 -35 -254 -127 -351
-191 -409 -269 -720 -660 -890 -1121 -39 -106 -99 -329 -109 -410 -4 -28 -9
-57 -11 -65 -24 -95 -25 -488 -1 -655 65 -446 197 -791 421 -1095 198 -269
503 -495 819 -606 78 -27 196 -61 241 -68 17 -3 53 -10 82 -15 149 -29 393
-31 553 -5 105 17 276 60 340 87 14 5 30 11 35 12 6 2 53 23 105 47 290 136
543 351 720 613 64 95 78 120 177 318 46 92 85 167 87 167 3 0 -19 -163 -32
-240 -31 -171 -103 -382 -194 -565 -44 -89 -177 -301 -210 -337 -7 -7 -31 -36
-53 -63 -148 -187 -398 -388 -645 -518 -150 -80 -399 -172 -517 -193 -15 -3
-44 -9 -63 -14 -19 -5 -60 -12 -90 -15 -30 -4 -57 -8 -60 -10 -11 -7 -201 -18
-300 -17 -102 1 -230 9 -260 17 -8 2 -36 7 -61 9 -207 24 -499 122 -729 243
-880 467 -1388 1215 -1468 2163 -14 164 -6 573 13 665 2 11 7 44 10 74 3 29 7
56 9 60 2 3 7 22 10 41 12 75 18 98 42 190 141 530 471 1010 939 1367 346 263
814 492 1210 591 105 27 226 51 284 58 25 3 57 7 71 10 14 2 61 7 105 10 44 4
81 8 83 9 6 6 426 -3 477 -9z m255 -471 c129 -6 142 -8 293 -36 406 -75 855
-286 1210 -568 434 -345 756 -893 877 -1491 5 -25 11 -54 14 -66 2 -12 7 -45
11 -74 4 -29 8 -62 11 -73 23 -124 24 -626 0 -698 -3 -8 -7 -34 -10 -59 -2
-25 -14 -91 -25 -147 -110 -535 -375 -1023 -780 -1433 -217 -219 -387 -352
-656 -512 -257 -153 -669 -305 -955 -352 -19 -3 -46 -8 -60 -10 -268 -47 -604
-51 -900 -10 -144 19 -160 22 -280 50 -654 153 -1233 514 -1649 1029 -143 176
-294 420 -385 620 -32 71 -32 72 77 -77 351 -477 805 -838 1339 -1067 332
-142 615 -201 933 -196 172 3 235 10 395 42 192 38 436 123 580 201 265 144
407 248 600 442 136 135 147 147 231 260 246 329 401 720 437 1100 12 139 6
403 -13 505 -3 17 -12 66 -20 110 -21 112 -24 125 -45 215 -141 585 -432 1013
-865 1272 -218 130 -408 197 -705 247 -59 10 -413 8 -470 -3 -224 -43 -353
-83 -510 -157 -358 -170 -628 -432 -820 -794 -66 -124 -97 -171 -144 -213 -39
-35 -41 -34 -26 18 6 19 13 49 16 65 3 17 10 50 15 75 6 25 13 56 15 70 49
266 230 631 447 900 332 410 800 694 1292 784 123 23 142 25 265 32 63 3 117
8 118 9 2 2 9 2 15 0 7 -2 64 -6 127 -10z m-335 -899 c17 -4 68 -13 113 -22
190 -34 446 -146 622 -271 186 -133 370 -343 482 -550 202 -372 256 -821 148
-1228 -151 -571 -600 -1022 -1166 -1170 -160 -42 -255 -53 -433 -50 -166 3
-204 7 -351 40 -763 171 -1298 838 -1292 1613 1 145 11 233 48 402 15 71 79
240 125 331 188 376 489 649 889 807 41 16 122 41 180 56 108 26 129 30 215
42 28 3 51 7 53 9 6 5 337 -3 367 -9z"/>
</g>
</svg>
